<mxfile host="app.diagrams.net" modified="2024-06-23T12:49:04.086Z" agent="Mozilla/5.0 (Windows NT 10.0; Win64; x64) AppleWebKit/537.36 (KHTML, like Gecko) Chrome/120.0.0.0 Safari/537.36" etag="fGqpuvHPfukT9jI_PWXW" version="24.6.2" type="github">
  <diagram name="Page-1" id="10a91c8b-09ff-31b1-d368-03940ed4cc9e">
    <mxGraphModel dx="263" dy="687" grid="1" gridSize="10" guides="1" tooltips="1" connect="1" arrows="1" fold="1" page="1" pageScale="1" pageWidth="1100" pageHeight="850" background="none" math="0" shadow="0">
      <root>
        <mxCell id="0" />
        <mxCell id="1" parent="0" />
        <mxCell id="62893188c0fa7362-2" value="&lt;span&gt;Juara&lt;/span&gt;" style="whiteSpace=wrap;html=1;rounded=1;shadow=1;labelBackgroundColor=none;strokeWidth=1;fontFamily=Verdana;fontSize=12;align=center;" parent="1" vertex="1">
          <mxGeometry x="540" y="130" width="120" height="60" as="geometry" />
        </mxCell>
        <mxCell id="62893188c0fa7362-8" value="&lt;span&gt;Pemenang 3&lt;/span&gt;" style="whiteSpace=wrap;html=1;rounded=1;shadow=1;labelBackgroundColor=none;strokeWidth=1;fontFamily=Verdana;fontSize=12;align=center;" parent="1" vertex="1">
          <mxGeometry x="290" y="280" width="120" height="60" as="geometry" />
        </mxCell>
        <mxCell id="62893188c0fa7362-9" value="&lt;span&gt;Pemenang 4&lt;/span&gt;" style="whiteSpace=wrap;html=1;rounded=1;shadow=1;labelBackgroundColor=none;strokeWidth=1;fontFamily=Verdana;fontSize=12;align=center;" parent="1" vertex="1">
          <mxGeometry x="760" y="280" width="120" height="60" as="geometry" />
        </mxCell>
        <mxCell id="62893188c0fa7362-10" value="&lt;span&gt;48 A&lt;/span&gt;" style="whiteSpace=wrap;html=1;rounded=1;shadow=1;labelBackgroundColor=none;strokeWidth=2;fontFamily=Verdana;fontSize=12;align=center;" parent="1" vertex="1">
          <mxGeometry x="410" y="395" width="120" height="60" as="geometry" />
        </mxCell>
        <mxCell id="62893188c0fa7362-11" value="&lt;span&gt;Action&lt;/span&gt;" style="whiteSpace=wrap;html=1;rounded=1;shadow=1;labelBackgroundColor=none;strokeWidth=2;fontFamily=Verdana;fontSize=12;align=center;" parent="1" vertex="1">
          <mxGeometry x="870" y="395" width="120" height="60" as="geometry" />
        </mxCell>
        <mxCell id="62893188c0fa7362-12" value="&lt;span&gt;Pemenang 1&lt;/span&gt;" style="whiteSpace=wrap;html=1;rounded=1;shadow=1;labelBackgroundColor=none;strokeWidth=1;fontFamily=Verdana;fontSize=12;align=center;" parent="1" vertex="1">
          <mxGeometry x="160" y="395" width="120" height="60" as="geometry" />
        </mxCell>
        <mxCell id="62893188c0fa7362-13" value="&lt;span&gt;Pemenang 2&lt;/span&gt;" style="whiteSpace=wrap;html=1;rounded=1;shadow=1;labelBackgroundColor=none;strokeWidth=1;fontFamily=Verdana;fontSize=12;align=center;" parent="1" vertex="1">
          <mxGeometry x="650" y="395" width="120" height="60" as="geometry" />
        </mxCell>
        <mxCell id="62893188c0fa7362-20" value="49 A" style="whiteSpace=wrap;html=1;rounded=1;shadow=1;labelBackgroundColor=none;strokeWidth=2;fontFamily=Verdana;fontSize=12;align=center;" parent="1" vertex="1">
          <mxGeometry x="70" y="500" width="120" height="60" as="geometry" />
        </mxCell>
        <mxCell id="62893188c0fa7362-21" value="&lt;span&gt;49 B&lt;/span&gt;" style="whiteSpace=wrap;html=1;rounded=1;shadow=1;labelBackgroundColor=none;strokeWidth=2;fontFamily=Verdana;fontSize=12;align=center;" parent="1" vertex="1">
          <mxGeometry x="250" y="500" width="120" height="60" as="geometry" />
        </mxCell>
        <mxCell id="62893188c0fa7362-22" value="&lt;span&gt;50 A&lt;/span&gt;" style="whiteSpace=wrap;html=1;rounded=1;shadow=1;labelBackgroundColor=none;strokeWidth=2;fontFamily=Verdana;fontSize=12;align=center;" parent="1" vertex="1">
          <mxGeometry x="570" y="500" width="120" height="60" as="geometry" />
        </mxCell>
        <mxCell id="scnB9WSEFHguBf7H9MCy-1" style="rounded=1;orthogonalLoop=1;jettySize=auto;html=1;endArrow=none;endFill=0;" edge="1" parent="1" source="62893188c0fa7362-23" target="62893188c0fa7362-13">
          <mxGeometry relative="1" as="geometry" />
        </mxCell>
        <mxCell id="62893188c0fa7362-23" value="&lt;span&gt;48 B&lt;/span&gt;" style="whiteSpace=wrap;html=1;rounded=1;shadow=1;labelBackgroundColor=none;strokeWidth=2;fontFamily=Verdana;fontSize=12;align=center;" parent="1" vertex="1">
          <mxGeometry x="740" y="500" width="120" height="60" as="geometry" />
        </mxCell>
        <mxCell id="scnB9WSEFHguBf7H9MCy-3" value="" style="endArrow=none;html=1;rounded=1;" edge="1" parent="1" source="62893188c0fa7362-21" target="62893188c0fa7362-12">
          <mxGeometry width="50" height="50" relative="1" as="geometry">
            <mxPoint x="530" y="390" as="sourcePoint" />
            <mxPoint x="580" y="340" as="targetPoint" />
          </mxGeometry>
        </mxCell>
        <mxCell id="scnB9WSEFHguBf7H9MCy-4" value="" style="endArrow=none;html=1;rounded=1;" edge="1" parent="1" source="62893188c0fa7362-20" target="62893188c0fa7362-12">
          <mxGeometry width="50" height="50" relative="1" as="geometry">
            <mxPoint x="294" y="510" as="sourcePoint" />
            <mxPoint x="256" y="465" as="targetPoint" />
          </mxGeometry>
        </mxCell>
        <mxCell id="scnB9WSEFHguBf7H9MCy-5" value="" style="endArrow=none;html=1;rounded=1;" edge="1" parent="1" source="62893188c0fa7362-8" target="62893188c0fa7362-12">
          <mxGeometry width="50" height="50" relative="1" as="geometry">
            <mxPoint x="166" y="510" as="sourcePoint" />
            <mxPoint x="204" y="465" as="targetPoint" />
          </mxGeometry>
        </mxCell>
        <mxCell id="scnB9WSEFHguBf7H9MCy-6" value="" style="endArrow=none;html=1;rounded=1;" edge="1" parent="1" source="62893188c0fa7362-8" target="62893188c0fa7362-10">
          <mxGeometry width="50" height="50" relative="1" as="geometry">
            <mxPoint x="176" y="520" as="sourcePoint" />
            <mxPoint x="214" y="475" as="targetPoint" />
          </mxGeometry>
        </mxCell>
        <mxCell id="scnB9WSEFHguBf7H9MCy-7" value="" style="endArrow=none;html=1;rounded=1;" edge="1" parent="1" source="62893188c0fa7362-8" target="62893188c0fa7362-2">
          <mxGeometry width="50" height="50" relative="1" as="geometry">
            <mxPoint x="391" y="350" as="sourcePoint" />
            <mxPoint x="449" y="405" as="targetPoint" />
          </mxGeometry>
        </mxCell>
        <mxCell id="scnB9WSEFHguBf7H9MCy-8" value="" style="endArrow=none;html=1;rounded=1;" edge="1" parent="1" source="62893188c0fa7362-9" target="62893188c0fa7362-2">
          <mxGeometry width="50" height="50" relative="1" as="geometry">
            <mxPoint x="410" y="290" as="sourcePoint" />
            <mxPoint x="560" y="200" as="targetPoint" />
          </mxGeometry>
        </mxCell>
        <mxCell id="scnB9WSEFHguBf7H9MCy-9" value="" style="endArrow=none;html=1;rounded=1;" edge="1" parent="1" source="62893188c0fa7362-9" target="62893188c0fa7362-13">
          <mxGeometry width="50" height="50" relative="1" as="geometry">
            <mxPoint x="786" y="290" as="sourcePoint" />
            <mxPoint x="654" y="200" as="targetPoint" />
          </mxGeometry>
        </mxCell>
        <mxCell id="scnB9WSEFHguBf7H9MCy-10" value="" style="endArrow=none;html=1;rounded=1;" edge="1" parent="1" source="62893188c0fa7362-9" target="62893188c0fa7362-11">
          <mxGeometry width="50" height="50" relative="1" as="geometry">
            <mxPoint x="796" y="300" as="sourcePoint" />
            <mxPoint x="664" y="210" as="targetPoint" />
          </mxGeometry>
        </mxCell>
        <mxCell id="scnB9WSEFHguBf7H9MCy-11" value="" style="endArrow=none;html=1;rounded=1;" edge="1" parent="1" source="62893188c0fa7362-22" target="62893188c0fa7362-13">
          <mxGeometry width="50" height="50" relative="1" as="geometry">
            <mxPoint x="859" y="350" as="sourcePoint" />
            <mxPoint x="911" y="405" as="targetPoint" />
          </mxGeometry>
        </mxCell>
      </root>
    </mxGraphModel>
  </diagram>
</mxfile>
